<svg width="29" height="30" viewBox="0 0 29 30" fill="none" xmlns="http://www.w3.org/2000/svg">
<path fill-rule="evenodd" d="M0 15.4941C0 7.48599 6.49185 0.994141 14.4999 0.994141C22.508 0.994141 28.9999 7.48599 28.9999 15.4941C28.9999 23.5022 22.508 29.994 14.4999 29.994C6.49185 29.994 0 23.5022 0 15.4941Z" fill="#0A34CD"/>
<mask id="mask0_117_119" style="mask-type:alpha" maskUnits="userSpaceOnUse" x="0" y="0" width="29" height="30">
<path fill-rule="evenodd" d="M0 15.4941C0 7.48599 6.49185 0.994141 14.4999 0.994141C22.508 0.994141 28.9999 7.48599 28.9999 15.4941C28.9999 23.5022 22.508 29.994 14.4999 29.994C6.49185 29.994 0 23.5022 0 15.4941Z" fill="white"/>
</mask>
<g mask="url(#mask0_117_119)">
<path fill-rule="evenodd" d="M12.5664 15.493C12.5664 14.9618 12.9487 14.5264 13.433 14.5264C13.9172 14.5264 14.308 14.9618 14.2995 15.493C14.2995 16.0243 13.9172 16.4597 13.433 16.4597C12.9572 16.4597 12.5664 16.0243 12.5664 15.493ZM15.6667 15.493C15.6667 14.9618 16.049 14.5264 16.5333 14.5264C17.0175 14.5264 17.3998 14.9618 17.3998 15.493C17.3998 16.0243 17.0175 16.4597 16.5333 16.4597C16.0575 16.4597 15.6667 16.0243 15.6667 15.493Z" fill="white"/>
<path fill-rule="evenodd" d="M9.00518 7.27637H20.4781C21.4456 7.27637 22.2333 8.05453 22.2333 9.01878V24.193L20.3925 22.5859L19.3565 21.6386L18.2606 20.632L18.7143 22.1968H9.00518C8.03769 22.1968 7.25 21.4186 7.25 20.4544V9.01878C7.25 8.05453 8.03769 7.27637 9.00518 7.27637ZM16.6082 17.6377C16.865 17.9591 17.1732 18.3228 17.1732 18.3228C19.0654 18.2636 19.7932 17.0372 19.7932 17.0372C19.7932 14.3136 18.5603 12.106 18.5603 12.106C17.3274 11.1925 16.1544 11.2178 16.1544 11.2178L16.0345 11.3532C17.49 11.793 18.1664 12.4274 18.1664 12.4274C17.276 11.9453 16.4027 11.7084 15.5893 11.6154C14.9728 11.5477 14.3821 11.5646 13.8598 11.6323C13.815 11.6323 13.7766 11.6387 13.7335 11.646C13.7272 11.6471 13.7208 11.6481 13.7143 11.6492C13.4146 11.6746 12.6868 11.7845 11.7707 12.1821C11.4539 12.3259 11.2656 12.4274 11.2656 12.4274C11.2656 12.4274 11.9762 11.7592 13.5173 11.3193L13.4317 11.2178C13.4317 11.2178 12.2587 11.1925 11.0258 12.106C11.0258 12.106 9.79291 14.3136 9.79291 17.0372C9.79291 17.0372 10.5121 18.2636 12.4043 18.3228C12.4043 18.3228 12.7211 17.9422 12.9779 17.6208C11.8906 17.2994 11.4796 16.6227 11.4796 16.6227C11.4796 16.6227 11.5652 16.6819 11.7193 16.7665C11.7279 16.7749 11.7365 16.7834 11.7536 16.7919C11.7664 16.8003 11.7793 16.8067 11.7921 16.813C11.805 16.8194 11.8178 16.8257 11.8306 16.8342C12.0447 16.9526 12.2587 17.0456 12.4557 17.1217C12.8067 17.2571 13.2262 17.3924 13.7143 17.4854C14.3564 17.6039 15.1098 17.6462 15.9318 17.4939C16.3342 17.4262 16.7452 17.3078 17.1732 17.1302C17.4729 17.0202 17.8068 16.8595 18.1579 16.6312C18.1579 16.6312 17.7298 17.3247 16.6082 17.6377Z" fill="white"/>
</g>
</svg>
