<svg width="29" height="30" viewBox="0 0 29 30" fill="none" xmlns="http://www.w3.org/2000/svg">
<path fill-rule="evenodd" d="M14.4999 29.994C22.508 29.994 28.9999 23.5022 28.9999 15.4941C28.9999 7.48599 22.508 0.994141 14.4999 0.994141C6.49185 0.994141 0 7.48599 0 15.4941C0 23.5022 6.49185 29.994 14.4999 29.994Z" fill="#0A34CD"/>
<path fill-rule="evenodd" d="M11.8415 22.1393C11.3718 22.1393 11.4516 21.9619 11.2896 21.5146L9.9082 16.9683L20.5415 10.6602" fill="#C8DAEA"/>
<path fill-rule="evenodd" d="M11.8423 22.139C12.2048 22.139 12.365 21.9732 12.5674 21.7765L14.501 19.8966L12.0891 18.4424" fill="#A9C9DD"/>
<path fill-rule="evenodd" d="M12.0878 18.4435L17.9312 22.7608C18.5981 23.1287 19.0793 22.9382 19.2454 22.1417L21.624 10.9329C21.8675 9.95652 21.2518 9.5137 20.6139 9.80331L6.64686 15.189C5.69348 15.5714 5.69903 16.1032 6.47308 16.3402L10.0573 17.459L18.3553 12.2239C18.747 11.9863 19.1066 12.114 18.8115 12.3759" fill="url(#telegram_linear)"/>
<defs>
<linearGradient id="telegram_linear" x1="12.6844" y1="16.3847" x2="14.2337" y2="21.3962" gradientUnits="userSpaceOnUse">
<stop stop-color="#EFF7FC"/>
<stop offset="1" stop-color="white"/>
</linearGradient>
</defs>
</svg>
