<svg width="29" height="30" viewBox="0 0 29 30" fill="none" xmlns="http://www.w3.org/2000/svg">
<path fill-rule="evenodd" d="M0 15.4941C0 7.48599 6.49185 0.994141 14.4999 0.994141C22.508 0.994141 28.9999 7.48599 28.9999 15.4941C28.9999 23.5022 22.508 29.994 14.4999 29.994C6.49185 29.994 0 23.5022 0 15.4941Z" fill="#0A34CD"/>
<path fill-rule="evenodd" d="M14.0662 12.7801L14.0966 13.2818L13.5895 13.2204C11.7436 12.9849 10.1309 12.1862 8.76171 10.8449L8.09231 10.1793L7.91989 10.6708C7.55476 11.7664 7.78804 12.9235 8.54872 13.7017C8.95441 14.1317 8.86313 14.1931 8.16331 13.9372C7.91989 13.8552 7.7069 13.7938 7.68661 13.8245C7.61562 13.8962 7.85903 14.828 8.05174 15.1966C8.31544 15.7086 8.85299 16.2103 9.44125 16.5072L9.93823 16.7428L9.34997 16.753C8.78199 16.753 8.76171 16.7632 8.82256 16.9783C9.02541 17.6438 9.82666 18.3503 10.7192 18.6575L11.348 18.8726L10.8003 19.2002C9.98894 19.6712 9.03555 19.9374 8.08217 19.9579C7.62576 19.9682 7.25049 20.0091 7.25049 20.0398C7.25049 20.1422 8.48786 20.7156 9.20797 20.9409C11.3683 21.6065 13.9343 21.3198 15.8614 20.1832C17.2306 19.3743 18.5998 17.7667 19.2388 16.2103C19.5837 15.3809 19.9285 13.8655 19.9285 13.1385C19.9285 12.6675 19.9589 12.606 20.5269 12.0429C20.8616 11.7152 21.176 11.3568 21.2369 11.2544C21.3383 11.0599 21.3282 11.0599 20.8109 11.234C19.9488 11.5411 19.8271 11.5002 20.2531 11.0394C20.5675 10.7117 20.9427 10.1179 20.9427 9.94379C20.9427 9.91307 20.7906 9.96427 20.6182 10.0564C20.4356 10.1588 20.0299 10.3124 19.7257 10.4046L19.178 10.5786L18.681 10.2407C18.4071 10.0564 18.0217 9.85164 17.8189 9.7902C17.3016 9.64685 16.5105 9.66733 16.044 9.83116C14.7762 10.2919 13.9749 11.4797 14.0662 12.7801Z" fill="white"/>
</svg>
