<svg width="29" height="30" viewBox="0 0 29 30" fill="none" xmlns="http://www.w3.org/2000/svg">
<path fill-rule="evenodd" d="M0 15.4941C0 7.48599 6.49185 0.994141 14.4999 0.994141C22.508 0.994141 28.9999 7.48599 28.9999 15.4941C28.9999 23.5022 22.508 29.994 14.4999 29.994C6.49185 29.994 0 23.5022 0 15.4941Z" fill="#0A34CD"/>
<path fill-rule="evenodd" d="M21.9105 11.9136C21.7326 11.2303 21.2085 10.6922 20.543 10.5096C19.337 10.1777 14.5004 10.1777 14.5004 10.1777C14.5004 10.1777 9.66383 10.1777 8.4577 10.5096C7.79219 10.6922 7.26808 11.2303 7.09022 11.9136C6.76709 13.1521 6.76709 15.736 6.76709 15.736C6.76709 15.736 6.76709 18.3199 7.09022 19.5585C7.26808 20.2418 7.79219 20.7799 8.4577 20.9626C9.66383 21.2944 14.5004 21.2944 14.5004 21.2944C14.5004 21.2944 19.337 21.2944 20.543 20.9626C21.2085 20.7799 21.7326 20.2418 21.9105 19.5585C22.2337 18.3199 22.2337 15.736 22.2337 15.736C22.2337 15.736 22.2337 13.1521 21.9105 11.9136Z" fill="white"/>
<path fill-rule="evenodd" d="M13.0503 18.3939V13.5605L16.9175 15.9773L13.0503 18.3939Z" fill="#0A34CD"/>
</svg>
